Coordinates
version=1
nRows=14
nColumns=24
inDegrees=yes

Units are S.I. units (second, meters, Newtons, ...)
Angles are in degrees.

endheader
time	pelvis_tilt	pelvis_list	pelvis_rotation	pelvis_tx	pelvis_ty	pelvis_tz	hip_flexion_r	hip_adduction_r	hip_rotation_r	knee_angle_r	ankle_angle_r	subtalar_angle_r	mtp_angle_r	hip_flexion_l	hip_adduction_l	hip_rotation_l	knee_angle_l	ankle_angle_l	subtalar_angle_l	mtp_angle_l	lumbar_extension	lumbar_bending	lumbar_rotation
      5.19000000	      4.47858201	      1.97078862	      4.68130592	     -1.24202001	      0.71662187	      0.30220993	     15.86556439	      0.09200383	      6.55760922	      2.16163683	      3.41712186	    -12.67406456	      0.00000000	    -24.29346735	      5.32090508	      2.93332849	    -10.17025028	     20.13833614	     -9.31035635	      0.00000000	    -25.29016772	     -2.03812028	    -18.89366262
      5.20000000	      4.73130335	      1.28176404	      5.15252081	     -1.22711279	      0.71593241	      0.30274861	     15.91218896	      1.06329902	      7.70656618	     -0.11043571	      0.72639983	    -16.37805180	      0.00000000	    -24.35283245	      4.24459875	      2.37750809	    -12.60163390	     19.45422480	     -8.81572372	      0.00000000	    -25.38829286	     -1.12711916	    -19.02199579
      5.21000000	      5.03183299	      0.42359348	      5.40543320	     -1.21217176	      0.71576945	      0.30352815	     16.14338072	      2.35892423	      8.54500857	     -2.90007452	     -1.46279074	    -19.28178407	      0.00000000	    -24.27962669	      3.05324556	      1.59059362	    -15.24763831	     18.24693868	     -8.53541194	      0.00000000	    -25.56189875	     -0.10451831	    -18.88972394
      5.22000000	      5.36990100	     -0.54904375	      5.47624338	     -1.19725209	      0.71609092	      0.30443507	     16.63540083	      3.88228721	      8.40048586	     -6.26111397	     -2.07766646	    -20.22629620	      0.00000000	    -24.06115863	      1.82716032	      0.88573432	    -18.11579743	     16.39294118	     -8.73372657	      0.00000000	    -25.81530258	      0.99385784	    -18.50628381
      5.23000000	      5.69723919	     -1.48611338	      5.33778733	     -1.18236258	      0.71673516	      0.30555915	     17.12064508	      5.44825387	      8.51715266	     -9.68481600	     -2.12020995	    -21.11895607	      0.00000000	    -23.58919808	      0.66350294	     -0.09662554	    -21.29629380	     14.06863806	     -8.74307089	      0.00000000	    -26.09039300	      1.96827242	    -18.02955389
      5.24000000	      5.95912458	     -2.35644498	      5.06324439	     -1.16753502	      0.71758417	      0.30683090	     17.52351137	      6.98757619	      8.74202167	    -12.92608348	     -1.53037423	    -21.81404468	      0.00000000	    -22.78553624	     -0.45122433	     -1.23014180	    -24.79669790	     11.42480231	     -8.54342827	      0.00000000	    -26.31171096	      2.80400441	    -17.55378465
      5.25000000	      6.20048131	     -3.14888260	      4.74589400	     -1.15284470	      0.71869982	      0.30813871	     17.60690379	      8.42318212	      8.93853244	    -15.60726264	     -0.40895905	    -22.14146531	      0.00000000	    -21.70430201	     -1.53630455	     -2.29248814	    -28.55167270	      8.33019432	     -8.41914057	      0.00000000	    -26.53827268	      3.52262457	    -17.07771652
      5.26000000	      6.29248878	     -3.79095199	      4.52405062	     -1.13839149	      0.71995658	      0.30931974	     17.51589726	      9.55562963	      8.65541836	    -17.68294357	      1.47313956	    -21.48642343	      0.00000000	    -20.18557874	     -2.56931166	     -3.12791746	    -32.52046817	      5.02020622	     -8.21944503	      0.00000000	    -26.60878168	      4.09039838	    -16.84572700
      5.27000000	      6.31251689	     -4.42388147	      4.48909114	     -1.12415151	      0.72143028	      0.31030997	     16.96945315	     10.56042983	      8.50725280	    -18.80053414	      3.11713903	    -21.29252969	      0.00000000	    -18.36661895	     -3.68634565	     -3.59066787	    -36.54048594	      1.79053056	     -8.18798342	      0.00000000	    -26.59120023	      4.69834115	    -16.75019098
      5.28000000	      6.26007291	     -4.97520512	      4.62724268	     -1.11020995	      0.72311507	      0.31109083	     16.14187634	     11.30425720	      7.95723266	    -19.21641316	      4.94052253	    -20.52787311	      0.00000000	    -16.27980785	     -4.81308455	     -3.79572744	    -40.49312751	     -1.03468533	     -8.15650526	      0.00000000	    -26.50333143	      5.25093480	    -16.78033142
      5.29000000	      6.08047394	     -5.47204623	      5.03543105	     -1.09657095	      0.72496129	      0.31153453	     15.05948658	     11.82736144	      7.23324516	    -18.86222989	      6.44957263	    -19.86065165	      0.00000000	    -13.88195076	     -5.91765154	     -3.53856219	    -44.28007858	     -3.11572884	     -8.22979199	      0.00000000	    -26.27365331	      5.81769486	    -17.02916134
      5.30000000	      5.77336296	     -5.85140028	      5.59655785	     -1.08323204	      0.72694775	      0.31175070	     13.80692762	     12.13815591	      6.52445115	    -17.92265447	      7.52077508	    -19.41852652	      0.00000000	    -11.25203141	     -6.84261041	     -2.93190554	    -47.75226568	     -4.30252188	     -8.42269954	      0.00000000	    -25.91146273	      6.27066658	    -17.38413063
      5.31000000	      5.43172712	     -6.09919692	      6.19322558	     -1.07015697	      0.72914441	      0.31179844	     12.41955218	     12.24960118	      5.64036752	    -16.64635936	      8.57281460	    -18.61699862	      0.00000000	     -8.59109142	     -7.50260636	     -2.12429142	    -50.76117379	     -4.53917142	     -8.71244354	      0.00000000	    -25.55403114	      6.56661821	    -17.65721180
      5.32000000	      5.06307086	     -6.15453953	      6.69975470	     -1.05730156	      0.73154489	      0.31180813	     10.92296582	     12.16857429	      4.87032153	    -15.15682070	      9.43227807	    -17.74002882	      0.00000000	     -5.99411344	     -7.79811964	     -1.28341366	    -53.21611653	     -3.88600713	     -9.06067643	      0.00000000	    -25.22578551	      6.59446134	    -17.79860946
